<svg width="167" height="48" viewBox="0 0 167 48" fill="none" xmlns="http://www.w3.org/2000/svg">
<path d="M57.783 9.43711C57.783 6.4297 57.834 3.6297 57.987 1.03711L50.184 2.54081V3.26674L50.949 3.37044C51.51 3.42229 51.867 3.6297 52.071 3.94081C52.275 4.30378 52.428 4.82229 52.53 5.60007C52.632 7.10378 52.734 10.526 52.683 15.9186C52.683 21.2593 52.632 24.6297 52.53 25.926C55.335 26.5482 57.528 26.8075 59.16 26.8075C62.22 26.8075 64.617 25.926 66.351 24.1112C68.085 22.3482 69.003 19.8593 69.003 16.8001C69.003 14.363 68.34 12.3408 67.014 10.7334C65.688 9.126 64.005 8.34822 62.016 8.34822C60.69 8.34822 59.313 8.71118 57.783 9.43711ZM57.936 25.4075C57.834 23.7482 57.732 18.7704 57.732 10.6297C58.191 10.4741 58.803 10.3704 59.568 10.3704C60.792 10.3704 61.761 10.9927 62.475 12.289C63.189 13.5853 63.546 15.1408 63.546 17.1112C63.546 19.5482 63.138 21.5186 62.322 23.1779C61.506 24.7853 60.486 25.6149 59.211 25.6149C58.803 25.5112 58.395 25.4593 57.936 25.4075ZM20.91 1.55563H0.51001V2.59266L1.58101 2.69637C2.39701 2.85192 2.95801 3.16304 3.31501 3.6297C3.67201 4.14822 3.87601 4.97785 3.92701 6.11859C4.33501 11.7186 4.33501 16.9556 3.92701 21.7778C3.82501 22.9186 3.62101 23.7482 3.31501 24.2667C2.95801 24.7853 2.39701 25.0964 1.58101 25.2001L0.51001 25.3556V26.3927H13.668V25.3556L12.291 25.2519C11.955 25.2233 11.6282 25.1259 11.3301 24.9655C11.0321 24.8051 10.7692 24.5851 10.557 24.3186C10.2 23.8001 9.99601 22.9704 9.94501 21.8297C9.79201 19.7556 9.69001 17.3704 9.69001 14.726L12.444 14.7779C13.923 14.8297 14.943 15.9704 15.453 18.2519H16.473V9.80007H15.453C14.943 12.0297 13.974 13.1704 12.444 13.2223L9.69001 13.2741C9.69001 8.60748 9.79201 5.28896 9.94501 3.26674H13.974C16.83 3.26674 18.768 5.13341 19.89 8.86674L21.114 8.50378L20.91 1.55563ZM18.513 17.526C18.513 20.2223 19.278 22.4519 20.757 24.2149C22.236 25.9778 24.429 26.8075 27.183 26.8075C29.937 26.8075 32.181 25.926 33.813 24.1112C35.445 22.3482 36.21 20.1186 36.21 17.4223C36.21 14.726 35.445 12.4964 33.966 10.7334C32.487 8.97044 30.294 8.14081 27.54 8.14081C24.786 8.14081 22.542 9.02229 20.91 10.8371C19.278 12.6001 18.513 14.8297 18.513 17.526ZM29.886 11.6149C30.498 13.1186 30.753 15.089 30.753 17.4741C30.753 22.9704 29.631 25.6667 27.438 25.6667C26.316 25.6667 25.449 24.889 24.837 23.3334C24.225 21.7778 23.97 19.8075 23.97 17.4741C23.97 12.0297 25.092 9.33341 27.285 9.33341C28.407 9.28155 29.274 10.0593 29.886 11.6149ZM72.981 24.2149C74.664 25.926 76.806 26.8075 79.356 26.8075C80.937 26.8075 82.314 26.4964 83.538 25.8223C84.762 25.2001 85.731 24.4223 86.394 23.489L85.884 22.8667C84.762 23.7482 83.487 24.163 82.008 24.163C79.968 24.163 78.387 23.489 77.316 22.089C76.194 20.689 75.684 18.926 75.786 16.6445H86.7C86.7 14.1556 86.088 12.1334 84.813 10.526C83.538 8.97044 81.753 8.19267 79.458 8.19267C76.602 8.19267 74.409 9.126 72.828 10.9408C71.247 12.7556 70.482 14.9853 70.482 17.6297C70.482 20.326 71.298 22.5038 72.981 24.2149ZM76.755 11.2001C77.316 9.95563 78.03 9.33341 78.999 9.33341C80.529 9.33341 81.294 11.3038 81.294 15.2964L75.888 15.4001C75.939 13.8445 76.194 12.4445 76.755 11.2001ZM100.419 9.126C99.042 8.50378 97.308 8.14081 95.217 8.14081C93.075 8.14081 91.392 8.71118 90.117 9.80007C88.842 10.889 88.179 12.2371 88.179 13.8445C88.179 15.2445 88.587 16.3334 89.352 17.1112C90.117 17.889 91.341 18.563 92.922 19.1334C94.35 19.6519 95.37 20.1704 95.88 20.6371C96.39 21.1556 96.696 21.726 96.696 22.5038C96.696 23.2297 96.441 23.9038 95.88 24.4223C95.37 24.9927 94.656 25.2519 93.738 25.2519C91.494 25.2519 89.811 23.5927 88.638 20.2741L87.771 20.5334L87.975 25.7186C89.811 26.4445 91.851 26.8075 94.095 26.8075C96.441 26.8075 98.226 26.289 99.552 25.2001C100.878 24.163 101.541 22.6593 101.541 20.7927C101.541 19.5482 101.235 18.5112 100.572 17.7334C99.909 16.9556 98.838 16.2816 97.308 15.6593C95.625 15.0371 94.452 14.4667 93.84 13.9482C93.228 13.4297 92.922 12.8075 92.922 12.0297C92.922 11.2519 93.126 10.6297 93.585 10.1112C94.044 9.59266 94.605 9.38526 95.319 9.38526C97.359 9.38526 98.838 10.889 99.756 13.8445L100.623 13.5853L100.419 9.126ZM51.357 8.65933C50.643 8.29637 49.878 8.14081 49.011 8.14081C48.144 8.14081 47.277 8.50378 46.308 9.2297C45.339 9.95563 44.625 10.9408 44.064 12.289L44.115 8.14081L36.363 9.69637V10.4223L37.128 10.4741C38.097 10.5779 38.658 11.3556 38.76 12.7556C39.066 15.9704 39.066 19.3927 38.76 23.0223C38.658 24.4223 38.097 25.1482 37.128 25.3038L36.363 25.4075V26.3927H47.175V25.4075L45.798 25.3038C44.829 25.2001 44.268 24.4223 44.166 23.0223C43.86 20.0149 43.809 16.8001 44.064 13.4816C44.37 12.963 45.033 12.6519 46.053 12.5482C47.073 12.4445 48.246 12.7556 49.47 13.4816L51.357 8.65933Z" fill="#1C1F22"/>
<path d="M3.21023 45H0.632102V37.7273H3.23153C3.96307 37.7273 4.5928 37.8729 5.12074 38.1641C5.64867 38.4529 6.05469 38.8684 6.33878 39.4105C6.62524 39.9527 6.76847 40.6013 6.76847 41.3565C6.76847 42.1141 6.62524 42.7652 6.33878 43.3097C6.05469 43.8542 5.64631 44.272 5.11364 44.5632C4.58333 44.8544 3.94886 45 3.21023 45ZM2.16974 43.6825H3.14631C3.60085 43.6825 3.98319 43.602 4.29332 43.4411C4.60582 43.2777 4.8402 43.0256 4.99645 42.6847C5.15507 42.3414 5.23438 41.8987 5.23438 41.3565C5.23438 40.8191 5.15507 40.38 4.99645 40.0391C4.8402 39.6982 4.60701 39.4472 4.29688 39.2862C3.98674 39.1252 3.6044 39.0447 3.14986 39.0447H2.16974V43.6825ZM9.44513 37.7273V45H7.90749V37.7273H9.44513ZM11.9638 45H10.3161L12.8267 37.7273H14.8082L17.3153 45H15.6676L13.8459 39.3892H13.7891L11.9638 45ZM11.8608 42.1413H15.7528V43.3416H11.8608V42.1413ZM18.1907 37.7273H20.087L22.0898 42.6136H22.1751L24.1779 37.7273H26.0742V45H24.5827V40.2663H24.5224L22.6403 44.9645H21.6246L19.7425 40.2486H19.6822V45H18.1907V37.7273ZM34.0243 41.3636C34.0243 42.1567 33.874 42.8314 33.5733 43.3878C33.275 43.9441 32.8678 44.3691 32.3517 44.6626C31.838 44.9538 31.2604 45.0994 30.6188 45.0994C29.9725 45.0994 29.3925 44.9527 28.8787 44.6591C28.365 44.3655 27.959 43.9406 27.6607 43.3842C27.3624 42.8279 27.2132 42.1544 27.2132 41.3636C27.2132 40.5705 27.3624 39.8958 27.6607 39.3395C27.959 38.7831 28.365 38.3594 28.8787 38.0682C29.3925 37.7746 29.9725 37.6278 30.6188 37.6278C31.2604 37.6278 31.838 37.7746 32.3517 38.0682C32.8678 38.3594 33.275 38.7831 33.5733 39.3395C33.874 39.8958 34.0243 40.5705 34.0243 41.3636ZM32.4654 41.3636C32.4654 40.8499 32.3884 40.4167 32.2346 40.0639C32.083 39.7112 31.8688 39.4437 31.5918 39.2614C31.3148 39.0791 30.9905 38.9879 30.6188 38.9879C30.2471 38.9879 29.9228 39.0791 29.6458 39.2614C29.3688 39.4437 29.1533 39.7112 28.9995 40.0639C28.848 40.4167 28.7722 40.8499 28.7722 41.3636C28.7722 41.8774 28.848 42.3106 28.9995 42.6634C29.1533 43.0161 29.3688 43.2836 29.6458 43.4659C29.9228 43.6482 30.2471 43.7393 30.6188 43.7393C30.9905 43.7393 31.3148 43.6482 31.5918 43.4659C31.8688 43.2836 32.083 43.0161 32.2346 42.6634C32.3884 42.3106 32.4654 41.8774 32.4654 41.3636ZM41.2464 37.7273V45H39.9183L36.7543 40.4226H36.701V45H35.1634V37.7273H36.5128L39.652 42.3011H39.7159V37.7273H41.2464ZM45.095 45H42.5169V37.7273H45.1163C45.8478 37.7273 46.4776 37.8729 47.0055 38.1641C47.5334 38.4529 47.9395 38.8684 48.2235 39.4105C48.51 39.9527 48.6532 40.6013 48.6532 41.3565C48.6532 42.1141 48.51 42.7652 48.2235 43.3097C47.9395 43.8542 47.5311 44.272 46.9984 44.5632C46.4681 44.8544 45.8336 45 45.095 45ZM44.0545 43.6825H45.0311C45.4856 43.6825 45.868 43.602 46.1781 43.4411C46.4906 43.2777 46.725 43.0256 46.8812 42.6847C47.0398 42.3414 47.1191 41.8987 47.1191 41.3565C47.1191 40.8191 47.0398 40.38 46.8812 40.0391C46.725 39.6982 46.4918 39.4472 46.1816 39.2862C45.8715 39.1252 45.4892 39.0447 45.0346 39.0447H44.0545V43.6825ZM53.7376 39.8189C53.7092 39.5324 53.5872 39.3099 53.3718 39.1513C53.1564 38.9927 52.864 38.9134 52.4947 38.9134C52.2437 38.9134 52.0318 38.9489 51.859 39.0199C51.6862 39.0885 51.5536 39.1844 51.4613 39.3075C51.3713 39.4306 51.3263 39.5703 51.3263 39.7266C51.3216 39.8568 51.3488 39.9704 51.408 40.0675C51.4696 40.1645 51.5536 40.2486 51.6602 40.3196C51.7667 40.3883 51.8898 40.4486 52.0295 40.5007C52.1692 40.5504 52.3183 40.593 52.4769 40.6286L53.1303 40.7848C53.4476 40.8558 53.7388 40.9505 54.0039 41.0689C54.2691 41.1873 54.4987 41.3329 54.6928 41.5057C54.887 41.6785 55.0373 41.8821 55.1438 42.1165C55.2527 42.3509 55.3084 42.6196 55.3107 42.9226C55.3084 43.3677 55.1947 43.7536 54.9698 44.0803C54.7473 44.4046 54.4253 44.6567 54.0039 44.8366C53.5849 45.0142 53.0794 45.103 52.4876 45.103C51.9004 45.103 51.3891 45.013 50.9535 44.8331C50.5202 44.6532 50.1817 44.3868 49.9379 44.0341C49.6964 43.679 49.5697 43.2398 49.5579 42.7166H51.0458C51.0624 42.9605 51.1322 43.1641 51.2553 43.3274C51.3808 43.4884 51.5477 43.6103 51.756 43.6932C51.9667 43.7737 52.2047 43.8139 52.4698 43.8139C52.7302 43.8139 52.9563 43.776 53.1481 43.7003C53.3422 43.6245 53.4925 43.5192 53.5991 43.3842C53.7056 43.2493 53.7589 43.0942 53.7589 42.919C53.7589 42.7557 53.7103 42.6184 53.6133 42.5071C53.5186 42.3958 53.3789 42.3011 53.1942 42.223C53.012 42.1449 52.7882 42.0739 52.5231 42.0099L51.7312 41.8111C51.118 41.6619 50.6339 41.4287 50.2788 41.1115C49.9237 40.7943 49.7473 40.367 49.7496 39.8295C49.7473 39.3892 49.8645 39.0045 50.1012 38.6754C50.3403 38.3464 50.6682 38.0895 51.0849 37.9048C51.5015 37.7202 51.975 37.6278 52.5053 37.6278C53.0451 37.6278 53.5162 37.7202 53.9187 37.9048C54.3235 38.0895 54.6384 38.3464 54.8633 38.6754C55.0882 39.0045 55.2042 39.3857 55.2113 39.8189H53.7376ZM65.3427 41.3636C65.3427 42.1567 65.1924 42.8314 64.8917 43.3878C64.5934 43.9441 64.1862 44.3691 63.6701 44.6626C63.1564 44.9538 62.5787 45.0994 61.9371 45.0994C61.2908 45.0994 60.7108 44.9527 60.1971 44.6591C59.6834 44.3655 59.2773 43.9406 58.979 43.3842C58.6808 42.8279 58.5316 42.1544 58.5316 41.3636C58.5316 40.5705 58.6808 39.8958 58.979 39.3395C59.2773 38.7831 59.6834 38.3594 60.1971 38.0682C60.7108 37.7746 61.2908 37.6278 61.9371 37.6278C62.5787 37.6278 63.1564 37.7746 63.6701 38.0682C64.1862 38.3594 64.5934 38.7831 64.8917 39.3395C65.1924 39.8958 65.3427 40.5705 65.3427 41.3636ZM63.7837 41.3636C63.7837 40.8499 63.7068 40.4167 63.5529 40.0639C63.4014 39.7112 63.1871 39.4437 62.9102 39.2614C62.6332 39.0791 62.3088 38.9879 61.9371 38.9879C61.5655 38.9879 61.2411 39.0791 60.9641 39.2614C60.6871 39.4437 60.4717 39.7112 60.3178 40.0639C60.1663 40.4167 60.0906 40.8499 60.0906 41.3636C60.0906 41.8774 60.1663 42.3106 60.3178 42.6634C60.4717 43.0161 60.6871 43.2836 60.9641 43.4659C61.2411 43.6482 61.5655 43.7393 61.9371 43.7393C62.3088 43.7393 62.6332 43.6482 62.9102 43.4659C63.1871 43.2836 63.4014 43.0161 63.5529 42.6634C63.7068 42.3106 63.7837 41.8774 63.7837 41.3636ZM66.4817 45V37.7273H71.2971V38.995H68.0194V40.728H70.9775V41.9957H68.0194V45H66.4817ZM78.5911 39.8189C78.5627 39.5324 78.4408 39.3099 78.2253 39.1513C78.0099 38.9927 77.7175 38.9134 77.3482 38.9134C77.0972 38.9134 76.8854 38.9489 76.7125 39.0199C76.5397 39.0885 76.4071 39.1844 76.3148 39.3075C76.2248 39.4306 76.1799 39.5703 76.1799 39.7266C76.1751 39.8568 76.2024 39.9704 76.2615 40.0675C76.3231 40.1645 76.4071 40.2486 76.5137 40.3196C76.6202 40.3883 76.7433 40.4486 76.883 40.5007C77.0227 40.5504 77.1718 40.593 77.3304 40.6286L77.9838 40.7848C78.3011 40.8558 78.5923 40.9505 78.8574 41.0689C79.1226 41.1873 79.3522 41.3329 79.5463 41.5057C79.7405 41.6785 79.8908 41.8821 79.9973 42.1165C80.1062 42.3509 80.1619 42.6196 80.1642 42.9226C80.1619 43.3677 80.0482 43.7536 79.8233 44.0803C79.6008 44.4046 79.2788 44.6567 78.8574 44.8366C78.4384 45.0142 77.9329 45.103 77.3411 45.103C76.754 45.103 76.2426 45.013 75.807 44.8331C75.3738 44.6532 75.0352 44.3868 74.7914 44.0341C74.5499 43.679 74.4232 43.2398 74.4114 42.7166H75.8993C75.9159 42.9605 75.9857 43.1641 76.1088 43.3274C76.2343 43.4884 76.4012 43.6103 76.6096 43.6932C76.8203 43.7737 77.0582 43.8139 77.3233 43.8139C77.5837 43.8139 77.8098 43.776 78.0016 43.7003C78.1957 43.6245 78.3461 43.5192 78.4526 43.3842C78.5591 43.2493 78.6124 43.0942 78.6124 42.919C78.6124 42.7557 78.5639 42.6184 78.4668 42.5071C78.3721 42.3958 78.2324 42.3011 78.0478 42.223C77.8655 42.1449 77.6417 42.0739 77.3766 42.0099L76.5847 41.8111C75.9715 41.6619 75.4874 41.4287 75.1323 41.1115C74.7772 40.7943 74.6008 40.367 74.6032 39.8295C74.6008 39.3892 74.718 39.0045 74.9547 38.6754C75.1938 38.3464 75.5217 38.0895 75.9384 37.9048C76.3551 37.7202 76.8285 37.6278 77.3588 37.6278C77.8986 37.6278 78.3697 37.7202 78.7722 37.9048C79.177 38.0895 79.4919 38.3464 79.7168 38.6754C79.9417 39.0045 80.0577 39.3857 80.0648 39.8189H78.5911ZM81.1985 45V37.7273H82.7362V43.7322H85.854V45H81.1985ZM93.2724 41.3636C93.2724 42.1567 93.122 42.8314 92.8214 43.3878C92.5231 43.9441 92.1159 44.3691 91.5998 44.6626C91.0861 44.9538 90.5084 45.0994 89.8668 45.0994C89.2205 45.0994 88.6405 44.9527 88.1268 44.6591C87.613 44.3655 87.207 43.9406 86.9087 43.3842C86.6104 42.8279 86.4613 42.1544 86.4613 41.3636C86.4613 40.5705 86.6104 39.8958 86.9087 39.3395C87.207 38.7831 87.613 38.3594 88.1268 38.0682C88.6405 37.7746 89.2205 37.6278 89.8668 37.6278C90.5084 37.6278 91.0861 37.7746 91.5998 38.0682C92.1159 38.3594 92.5231 38.7831 92.8214 39.3395C93.122 39.8958 93.2724 40.5705 93.2724 41.3636ZM91.7134 41.3636C91.7134 40.8499 91.6365 40.4167 91.4826 40.0639C91.3311 39.7112 91.1168 39.4437 90.8398 39.2614C90.5629 39.0791 90.2385 38.9879 89.8668 38.9879C89.4951 38.9879 89.1708 39.0791 88.8938 39.2614C88.6168 39.4437 88.4014 39.7112 88.2475 40.0639C88.096 40.4167 88.0202 40.8499 88.0202 41.3636C88.0202 41.8774 88.096 42.3106 88.2475 42.6634C88.4014 43.0161 88.6168 43.2836 88.8938 43.4659C89.1708 43.6482 89.4951 43.7393 89.8668 43.7393C90.2385 43.7393 90.5629 43.6482 90.8398 43.4659C91.1168 43.2836 91.3311 43.0161 91.4826 42.6634C91.6365 42.3106 91.7134 41.8774 91.7134 41.3636ZM95.3152 37.7273L97.073 43.2528H97.1404L98.9018 37.7273H100.606L98.0993 45H96.1177L93.6071 37.7273H95.3152ZM101.768 45H100.121L102.631 37.7273H104.613L107.12 45H105.472L103.651 39.3892H103.594L101.768 45ZM101.665 42.1413H105.558V43.3416H101.665V42.1413ZM107.995 45V37.7273H109.533V40.9339H109.629L112.246 37.7273H114.089L111.39 40.9837L114.121 45H112.282L110.289 42.0099L109.533 42.9332V45H107.995ZM117.204 45V37.7273H120.116C120.651 37.7273 121.098 37.8066 121.455 37.9652C121.813 38.1238 122.081 38.344 122.261 38.6257C122.441 38.9051 122.531 39.227 122.531 39.5916C122.531 39.8757 122.474 40.1255 122.361 40.3409C122.247 40.554 122.091 40.7292 121.892 40.8665C121.695 41.0014 121.47 41.0973 121.217 41.1541V41.2251C121.494 41.237 121.753 41.3151 121.995 41.4595C122.239 41.6039 122.436 41.8063 122.588 42.0668C122.739 42.3248 122.815 42.6326 122.815 42.9901C122.815 43.3759 122.719 43.7204 122.528 44.0234C122.338 44.3241 122.058 44.562 121.686 44.7372C121.314 44.9124 120.856 45 120.312 45H117.204ZM118.742 43.7429H119.996C120.424 43.7429 120.737 43.6612 120.933 43.4979C121.13 43.3321 121.228 43.112 121.228 42.8374C121.228 42.6361 121.179 42.4586 121.082 42.3047C120.985 42.1508 120.847 42.0301 120.667 41.9425C120.489 41.8549 120.277 41.8111 120.031 41.8111H118.742V43.7429ZM118.742 40.7706H119.882C120.093 40.7706 120.28 40.7339 120.443 40.6605C120.609 40.5848 120.739 40.4782 120.834 40.3409C120.931 40.2036 120.979 40.0391 120.979 39.8473C120.979 39.5845 120.886 39.3726 120.699 39.2116C120.514 39.0507 120.251 38.9702 119.91 38.9702H118.742V40.7706ZM128.308 37.7273H129.846V42.4503C129.846 42.9806 129.719 43.4446 129.466 43.8423C129.215 44.2401 128.863 44.5502 128.411 44.7727C127.959 44.9929 127.432 45.103 126.831 45.103C126.227 45.103 125.699 44.9929 125.247 44.7727C124.795 44.5502 124.443 44.2401 124.192 43.8423C123.941 43.4446 123.816 42.9806 123.816 42.4503V37.7273H125.353V42.3189C125.353 42.5959 125.414 42.8421 125.534 43.0575C125.658 43.273 125.83 43.4422 126.053 43.5653C126.275 43.6884 126.535 43.75 126.831 43.75C127.129 43.75 127.388 43.6884 127.608 43.5653C127.831 43.4422 128.002 43.273 128.123 43.0575C128.246 42.8421 128.308 42.5959 128.308 42.3189V37.7273ZM135.056 39.8189C135.028 39.5324 134.906 39.3099 134.69 39.1513C134.475 38.9927 134.182 38.9134 133.813 38.9134C133.562 38.9134 133.35 38.9489 133.177 39.0199C133.005 39.0885 132.872 39.1844 132.78 39.3075C132.69 39.4306 132.645 39.5703 132.645 39.7266C132.64 39.8568 132.667 39.9704 132.726 40.0675C132.788 40.1645 132.872 40.2486 132.979 40.3196C133.085 40.3883 133.208 40.4486 133.348 40.5007C133.488 40.5504 133.637 40.593 133.795 40.6286L134.449 40.7848C134.766 40.8558 135.057 40.9505 135.322 41.0689C135.587 41.1873 135.817 41.3329 136.011 41.5057C136.205 41.6785 136.356 41.8821 136.462 42.1165C136.571 42.3509 136.627 42.6196 136.629 42.9226C136.627 43.3677 136.513 43.7536 136.288 44.0803C136.066 44.4046 135.744 44.6567 135.322 44.8366C134.903 45.0142 134.398 45.103 133.806 45.103C133.219 45.103 132.707 45.013 132.272 44.8331C131.839 44.6532 131.5 44.3868 131.256 44.0341C131.015 43.679 130.888 43.2398 130.876 42.7166H132.364C132.381 42.9605 132.451 43.1641 132.574 43.3274C132.699 43.4884 132.866 43.6103 133.074 43.6932C133.285 43.7737 133.523 43.8139 133.788 43.8139C134.049 43.8139 134.275 43.776 134.466 43.7003C134.661 43.6245 134.811 43.5192 134.917 43.3842C135.024 43.2493 135.077 43.0942 135.077 42.919C135.077 42.7557 135.029 42.6184 134.932 42.5071C134.837 42.3958 134.697 42.3011 134.513 42.223C134.33 42.1449 134.107 42.0739 133.841 42.0099L133.05 41.8111C132.436 41.6619 131.952 41.4287 131.597 41.1115C131.242 40.7943 131.066 40.367 131.068 39.8295C131.066 39.3892 131.183 39.0045 131.42 38.6754C131.659 38.3464 131.987 38.0895 132.403 37.9048C132.82 37.7202 133.293 37.6278 133.824 37.6278C134.363 37.6278 134.835 37.7202 135.237 37.9048C135.642 38.0895 135.957 38.3464 136.182 38.6754C136.407 39.0045 136.523 39.3857 136.53 39.8189H135.056ZM139.201 37.7273V45H137.663V37.7273H139.201ZM146.549 37.7273V45H145.221L142.057 40.4226H142.004V45H140.466V37.7273H141.816L144.955 42.3011H145.019V37.7273H146.549ZM147.82 45V37.7273H152.72V38.995H149.357V40.728H152.468V41.9957H149.357V43.7322H152.734V45H147.82ZM157.888 39.8189C157.86 39.5324 157.738 39.3099 157.522 39.1513C157.307 38.9927 157.014 38.9134 156.645 38.9134C156.394 38.9134 156.182 38.9489 156.009 39.0199C155.837 39.0885 155.704 39.1844 155.612 39.3075C155.522 39.4306 155.477 39.5703 155.477 39.7266C155.472 39.8568 155.499 39.9704 155.558 40.0675C155.62 40.1645 155.704 40.2486 155.811 40.3196C155.917 40.3883 156.04 40.4486 156.18 40.5007C156.32 40.5504 156.469 40.593 156.627 40.6286L157.281 40.7848C157.598 40.8558 157.889 40.9505 158.154 41.0689C158.419 41.1873 158.649 41.3329 158.843 41.5057C159.037 41.6785 159.188 41.8821 159.294 42.1165C159.403 42.3509 159.459 42.6196 159.461 42.9226C159.459 43.3677 159.345 43.7536 159.12 44.0803C158.898 44.4046 158.576 44.6567 158.154 44.8366C157.735 45.0142 157.23 45.103 156.638 45.103C156.051 45.103 155.539 45.013 155.104 44.8331C154.671 44.6532 154.332 44.3868 154.088 44.0341C153.847 43.679 153.72 43.2398 153.708 42.7166H155.196C155.213 42.9605 155.283 43.1641 155.406 43.3274C155.531 43.4884 155.698 43.6103 155.906 43.6932C156.117 43.7737 156.355 43.8139 156.62 43.8139C156.881 43.8139 157.107 43.776 157.298 43.7003C157.493 43.6245 157.643 43.5192 157.749 43.3842C157.856 43.2493 157.909 43.0942 157.909 42.919C157.909 42.7557 157.861 42.6184 157.764 42.5071C157.669 42.3958 157.529 42.3011 157.345 42.223C157.162 42.1449 156.939 42.0739 156.673 42.0099L155.882 41.8111C155.268 41.6619 154.784 41.4287 154.429 41.1115C154.074 40.7943 153.898 40.367 153.9 39.8295C153.898 39.3892 154.015 39.0045 154.252 38.6754C154.491 38.3464 154.819 38.0895 155.235 37.9048C155.652 37.7202 156.125 37.6278 156.656 37.6278C157.195 37.6278 157.667 37.7202 158.069 37.9048C158.474 38.0895 158.789 38.3464 159.014 38.6754C159.239 39.0045 159.355 39.3857 159.362 39.8189H157.888ZM164.441 39.8189C164.412 39.5324 164.29 39.3099 164.075 39.1513C163.859 38.9927 163.567 38.9134 163.198 38.9134C162.947 38.9134 162.735 38.9489 162.562 39.0199C162.389 39.0885 162.257 39.1844 162.164 39.3075C162.074 39.4306 162.029 39.5703 162.029 39.7266C162.025 39.8568 162.052 39.9704 162.111 40.0675C162.173 40.1645 162.257 40.2486 162.363 40.3196C162.47 40.3883 162.593 40.4486 162.733 40.5007C162.872 40.5504 163.021 40.593 163.18 40.6286L163.833 40.7848C164.151 40.8558 164.442 40.9505 164.707 41.0689C164.972 41.1873 165.202 41.3329 165.396 41.5057C165.59 41.6785 165.74 41.8821 165.847 42.1165C165.956 42.3509 166.011 42.6196 166.014 42.9226C166.011 43.3677 165.898 43.7536 165.673 44.0803C165.45 44.4046 165.128 44.6567 164.707 44.8366C164.288 45.0142 163.783 45.103 163.191 45.103C162.604 45.103 162.092 45.013 161.657 44.8331C161.223 44.6532 160.885 44.3868 160.641 44.0341C160.4 43.679 160.273 43.2398 160.261 42.7166H161.749C161.766 42.9605 161.835 43.1641 161.958 43.3274C162.084 43.4884 162.251 43.6103 162.459 43.6932C162.67 43.7737 162.908 43.8139 163.173 43.8139C163.433 43.8139 163.659 43.776 163.851 43.7003C164.045 43.6245 164.196 43.5192 164.302 43.3842C164.409 43.2493 164.462 43.0942 164.462 42.919C164.462 42.7557 164.413 42.6184 164.316 42.5071C164.222 42.3958 164.082 42.3011 163.897 42.223C163.715 42.1449 163.491 42.0739 163.226 42.0099L162.434 41.8111C161.821 41.6619 161.337 41.4287 160.982 41.1115C160.627 40.7943 160.45 40.367 160.453 39.8295C160.45 39.3892 160.568 39.0045 160.804 38.6754C161.043 38.3464 161.371 38.0895 161.788 37.9048C162.205 37.7202 162.678 37.6278 163.208 37.6278C163.748 37.6278 164.219 37.7202 164.622 37.9048C165.027 38.0895 165.342 38.3464 165.566 38.6754C165.791 39.0045 165.907 39.3857 165.914 39.8189H164.441Z" fill="#0E0F10"/>
</svg>
