<svg width="102" height="35" viewBox="0 0 102 35" fill="none" xmlns="http://www.w3.org/2000/svg">
<g clip-path="url(#clip0_103_14346)">
<path d="M43.4063 17.9488C43.4063 22.8069 39.6601 26.3868 35.0626 26.3868C30.4651 26.3868 26.7188 22.8069 26.7188 17.9488C26.7188 13.0564 30.4651 9.51074 35.0626 9.51074C39.6601 9.51074 43.4063 13.0564 43.4063 17.9488ZM39.7538 17.9488C39.7538 14.9129 37.5826 12.8357 35.0626 12.8357C32.5426 12.8357 30.3713 14.9129 30.3713 17.9488C30.3713 20.9542 32.5426 23.0618 35.0626 23.0618C37.5826 23.0618 39.7538 20.9504 39.7538 17.9488Z" fill="#EA4335"/>
<path d="M61.4063 17.9488C61.4063 22.8069 57.6601 26.3868 53.0626 26.3868C48.4651 26.3868 44.7188 22.8069 44.7188 17.9488C44.7188 13.0602 48.4651 9.51074 53.0626 9.51074C57.6601 9.51074 61.4063 13.0564 61.4063 17.9488ZM57.7538 17.9488C57.7538 14.9129 55.5826 12.8357 53.0626 12.8357C50.5426 12.8357 48.3713 14.9129 48.3713 17.9488C48.3713 20.9542 50.5426 23.0618 53.0626 23.0618C55.5826 23.0618 57.7538 20.9504 57.7538 17.9488Z" fill="#FBBC05"/>
<path d="M78.6562 10.0205V25.1694C78.6562 31.401 75.0337 33.9461 70.7512 33.9461C66.72 33.9461 64.2937 31.2107 63.3787 28.9738L66.5587 27.6308C67.125 29.0042 68.5125 30.6249 70.7475 30.6249C73.4887 30.6249 75.1875 28.9091 75.1875 25.6792V24.4656H75.06C74.2425 25.489 72.6675 26.383 70.68 26.383C66.5212 26.383 62.7112 22.708 62.7112 17.9792C62.7112 13.2162 66.5212 9.51074 70.68 9.51074C72.6637 9.51074 74.2387 10.4048 75.06 11.3977H75.1875V10.0243H78.6562V10.0205ZM75.4462 17.9792C75.4462 15.008 73.4925 12.8357 71.0062 12.8357C68.4862 12.8357 66.375 15.008 66.375 17.9792C66.375 20.92 68.4862 23.0618 71.0062 23.0618C73.4925 23.0618 75.4462 20.92 75.4462 17.9792Z" fill="#4285F4"/>
<path d="M84.3751 1.14111V25.8694H80.8126V1.14111H84.3751Z" fill="#34A853"/>
<path d="M98.2575 20.7259L101.092 22.6432C100.177 24.0166 97.9725 26.3829 94.1625 26.3829C89.4375 26.3829 85.9088 22.6775 85.9088 17.9449C85.9088 12.9269 89.4675 9.50684 93.7538 9.50684C98.07 9.50684 100.181 12.9916 100.871 14.8748L101.25 15.8335L90.1313 20.5052C90.9825 22.1981 92.3063 23.0617 94.1625 23.0617C96.0225 23.0617 97.3125 22.1335 98.2575 20.7259ZM89.5313 17.69L96.9638 14.559C96.555 13.5052 95.325 12.771 93.8775 12.771C92.0213 12.771 89.4375 14.4335 89.5313 17.69Z" fill="#EA4335"/>
<path d="M13.2338 15.7537V12.1738H25.125C25.2413 12.7977 25.3013 13.5358 25.3013 14.3347C25.3013 17.0206 24.5775 20.3418 22.245 22.7081C19.9763 25.1048 17.0775 26.3831 13.2375 26.3831C6.12001 26.3831 0.13501 20.5015 0.13501 13.2809C0.13501 6.06023 6.12001 0.178711 13.2375 0.178711C17.175 0.178711 19.98 1.7461 22.0875 3.78904L19.5975 6.31512C18.0863 4.87708 16.0388 3.7586 13.2338 3.7586C8.03626 3.7586 3.97126 8.00806 3.97126 13.2809C3.97126 18.5537 8.03626 22.8032 13.2338 22.8032C16.605 22.8032 18.525 21.4298 19.755 20.182C20.7525 19.17 21.4088 17.7244 21.6675 15.7499L13.2338 15.7537Z" fill="#4285F4"/>
</g>
<defs>
<clipPath id="clip0_103_14346">
<rect width="102" height="35" fill="white"/>
</clipPath>
</defs>
</svg>
