<svg width="140" height="34" viewBox="0 0 140 34" fill="none" xmlns="http://www.w3.org/2000/svg">
<path d="M117.425 33.7106L125.872 13.4521H131.67L140 33.7106H134.525L132.642 28.8196H124.606L122.693 33.7106H117.425ZM126.137 24.8547H131.141L128.668 18.372L126.137 24.8547Z" fill="white"/>
<path d="M103.648 29.3116H106.826C107.631 29.3116 108.377 29.1669 109.063 28.8775C109.77 28.5881 110.388 28.1829 110.918 27.662C111.447 27.1411 111.859 26.5429 112.154 25.8677C112.448 25.1731 112.595 24.4303 112.595 23.6392C112.595 22.8289 112.448 22.0764 112.154 21.3819C111.859 20.668 111.447 20.0506 110.918 19.5296C110.388 19.0087 109.77 18.6035 109.063 18.3141C108.377 18.0054 107.631 17.8511 106.826 17.8511H103.648V29.3116ZM98.5851 33.7106V13.4521H106.944C108.475 13.4521 109.897 13.7126 111.212 14.2335C112.527 14.7544 113.674 15.478 114.656 16.4041C115.656 17.3302 116.431 18.4106 116.981 19.6454C117.55 20.8802 117.834 22.2115 117.834 23.6392C117.834 25.0477 117.55 26.3597 116.981 27.5752C116.431 28.7907 115.656 29.8615 114.656 30.7876C113.674 31.6944 112.527 32.4083 111.212 32.9292C109.897 33.4501 108.475 33.7106 106.944 33.7106H98.5851Z" fill="white"/>
<path d="M90.1055 33.7106V13.4521H95.168V33.7106H90.1055Z" fill="white"/>
<path d="M65.1541 33.7106L60.5625 13.4521H65.7722L68.274 25.9545L71.8649 13.4521H76.6036L80.1944 25.9545L82.6962 13.4521H87.7293L83.1377 33.7106H77.7809L74.1606 20.803L70.5109 33.7106H65.1541Z" fill="white"/>
<path d="M50.6755 34C49.0076 34 47.3593 33.7009 45.7307 33.1028C44.1021 32.5047 42.6501 31.6751 41.3746 30.6139L44.2002 26.9963C45.456 27.9996 46.6137 28.7231 47.6733 29.1669C48.7329 29.5914 49.8612 29.8036 51.0581 29.8036C51.843 29.8036 52.5101 29.7264 53.0596 29.5721C53.609 29.4177 54.0308 29.1958 54.3252 28.9064C54.6195 28.5977 54.7667 28.2408 54.7667 27.8356C54.7667 27.2761 54.5508 26.842 54.1191 26.5333C53.6875 26.2246 52.9516 25.9834 51.9117 25.8098L47.379 25.0284C45.7111 24.739 44.4258 24.1119 43.5232 23.1472C42.6206 22.1825 42.1693 20.9574 42.1693 19.4718C42.1693 18.1598 42.5029 17.0311 43.17 16.0857C43.8568 15.1403 44.8281 14.4168 46.0839 13.9151C47.3593 13.4135 48.8702 13.1627 50.6166 13.1627C52.1471 13.1627 53.6875 13.4232 55.2376 13.9441C56.7877 14.4457 58.1319 15.15 59.2699 16.0568L56.5915 19.7322C54.4723 18.1308 52.363 17.3301 50.2634 17.3301C49.5766 17.3301 48.9782 17.4073 48.468 17.5617C47.9774 17.6967 47.5948 17.8993 47.3201 18.1694C47.065 18.4202 46.9375 18.7289 46.9375 19.0955C46.9375 19.5972 47.1239 19.983 47.4967 20.2532C47.8891 20.5233 48.517 20.7355 49.3804 20.8899L53.6482 21.5844C55.63 21.8931 57.1311 22.5395 58.1515 23.5235C59.1914 24.5074 59.7114 25.7808 59.7114 27.3436C59.7114 28.7135 59.3484 29.9001 58.6224 30.9033C57.8964 31.8873 56.8564 32.6494 55.5025 33.1897C54.1486 33.7299 52.5396 34 50.6755 34Z" fill="white"/>
<path d="M135.263 7.39179C134.743 7.39179 134.272 7.27252 133.849 7.03396C133.433 6.79541 133.101 6.47166 132.851 6.06271C132.608 5.65376 132.487 5.1971 132.487 4.69273C132.487 4.19518 132.605 3.74533 132.841 3.3432C133.076 2.93425 133.395 2.6105 133.797 2.37195C134.199 2.12658 134.646 2.00389 135.139 2.00389C135.631 2.00389 136.067 2.12658 136.449 2.37195C136.83 2.6105 137.131 2.93766 137.353 3.35342C137.582 3.76237 137.696 4.22585 137.696 4.74385V5.03011H133.527C133.582 5.31638 133.69 5.57197 133.849 5.79689C134.016 6.02181 134.224 6.19903 134.473 6.32853C134.73 6.45803 135.007 6.52278 135.305 6.52278C135.561 6.52278 135.807 6.48529 136.043 6.41032C136.286 6.32853 136.487 6.21266 136.646 6.06271L137.312 6.7068C137 6.93854 136.677 7.11234 136.345 7.22821C136.019 7.33727 135.658 7.39179 135.263 7.39179ZM133.537 4.26333H136.667C136.625 3.9907 136.528 3.75215 136.376 3.54767C136.23 3.33638 136.047 3.1728 135.825 3.05693C135.61 2.93425 135.374 2.87291 135.118 2.87291C134.854 2.87291 134.612 2.93084 134.39 3.04671C134.168 3.16258 133.981 3.32616 133.828 3.53745C133.683 3.74192 133.586 3.98388 133.537 4.26333Z" fill="white"/>
<path d="M128.969 7.29975L126.681 2.09587H127.825L129.478 5.99111L131.131 2.09587H132.233L129.967 7.29975H128.969Z" fill="white"/>
<path d="M124.999 7.29975V2.09588H126.039V7.29975H124.999ZM125.519 1.25753C125.346 1.25753 125.197 1.19619 125.072 1.07351C124.947 0.944006 124.885 0.794058 124.885 0.623662C124.885 0.446451 124.947 0.299911 125.072 0.184042C125.197 0.0613574 125.346 1.52588e-05 125.519 1.52588e-05C125.699 1.52588e-05 125.852 0.0613574 125.977 0.184042C126.101 0.299911 126.164 0.446451 126.164 0.623662C126.164 0.794058 126.101 0.944006 125.977 1.07351C125.852 1.19619 125.699 1.25753 125.519 1.25753Z" fill="white"/>
<path d="M123.224 7.39178C122.711 7.39178 122.32 7.27591 122.049 7.04417C121.779 6.80562 121.644 6.46142 121.644 6.01158V2.95468H120.521V2.09589H121.644V0.766808L122.673 0.521439V2.09589H124.233V2.95468H122.673V5.77643C122.673 6.04225 122.732 6.23309 122.85 6.34896C122.975 6.45801 123.176 6.51254 123.453 6.51254C123.598 6.51254 123.727 6.50231 123.838 6.48187C123.955 6.46142 124.08 6.43075 124.212 6.38985V7.24865C124.073 7.29636 123.91 7.33044 123.723 7.35088C123.543 7.37815 123.377 7.39178 123.224 7.39178Z" fill="white"/>
<path d="M117.25 7.39178C116.869 7.39178 116.533 7.32703 116.241 7.19752C115.95 7.06121 115.722 6.87377 115.555 6.63522C115.389 6.39667 115.306 6.12063 115.306 5.8071C115.306 5.31636 115.496 4.93127 115.878 4.65182C116.259 4.36556 116.782 4.22242 117.448 4.22242C117.967 4.22242 118.449 4.32125 118.893 4.51891V3.96683C118.893 3.59196 118.782 3.31251 118.56 3.12849C118.345 2.94446 118.026 2.85244 117.604 2.85244C117.361 2.85244 117.108 2.88993 116.844 2.96491C116.581 3.03306 116.286 3.14212 115.961 3.29206L115.576 2.52529C115.978 2.34126 116.352 2.20835 116.699 2.12656C117.046 2.03796 117.396 1.99365 117.749 1.99365C118.435 1.99365 118.966 2.15382 119.34 2.47417C119.721 2.79451 119.912 3.25117 119.912 3.84415V7.29976H118.893V6.84992C118.657 7.03395 118.404 7.17026 118.134 7.25887C117.863 7.34747 117.569 7.39178 117.25 7.39178ZM116.304 5.78665C116.304 6.03884 116.411 6.24331 116.626 6.40008C116.848 6.55002 117.136 6.625 117.489 6.625C117.766 6.625 118.019 6.58751 118.248 6.51254C118.484 6.43075 118.699 6.30465 118.893 6.13426V5.25502C118.692 5.13915 118.48 5.05736 118.259 5.00965C118.044 4.95512 117.801 4.92786 117.531 4.92786C117.149 4.92786 116.848 5.00624 116.626 5.16301C116.411 5.31295 116.304 5.52084 116.304 5.78665Z" fill="white"/>
<path d="M111.879 7.29975L109.592 2.09587H110.736L112.389 5.99111L114.042 2.09587H115.144L112.878 7.29975H111.879Z" fill="white"/>
<path d="M106.588 7.402C106.075 7.402 105.607 7.28272 105.184 7.04417C104.768 6.80562 104.439 6.48187 104.197 6.07292C103.954 5.66397 103.833 5.20731 103.833 4.70294C103.833 4.19857 103.954 3.74191 104.197 3.33296C104.439 2.92401 104.768 2.60026 105.184 2.36171C105.607 2.11634 106.075 1.99365 106.588 1.99365C107.108 1.99365 107.576 2.11634 107.992 2.36171C108.408 2.60026 108.737 2.92401 108.98 3.33296C109.222 3.74191 109.343 4.19857 109.343 4.70294C109.343 5.20731 109.222 5.66397 108.98 6.07292C108.737 6.48187 108.408 6.80562 107.992 7.04417C107.576 7.28272 107.108 7.402 106.588 7.402ZM106.588 6.50231C106.914 6.50231 107.208 6.42393 107.472 6.26717C107.735 6.10359 107.943 5.88548 108.096 5.61285C108.248 5.34022 108.324 5.03351 108.324 4.69271C108.324 4.35874 108.245 4.05884 108.085 3.79303C107.933 3.52039 107.725 3.30229 107.461 3.13871C107.205 2.97513 106.914 2.89334 106.588 2.89334C106.262 2.89334 105.968 2.97513 105.704 3.13871C105.448 3.30229 105.24 3.52039 105.08 3.79303C104.928 4.05884 104.852 4.35874 104.852 4.69271C104.852 5.03351 104.928 5.34022 105.08 5.61285C105.233 5.88548 105.441 6.10359 105.704 6.26717C105.968 6.42393 106.262 6.50231 106.588 6.50231Z" fill="white"/>
<path d="M98.1718 7.29976V2.09589H99.2116V2.62752C99.6206 2.20494 100.151 1.99365 100.802 1.99365C101.211 1.99365 101.568 2.07885 101.873 2.24925C102.185 2.41964 102.428 2.65819 102.601 2.96491C102.781 3.27162 102.872 3.62604 102.872 4.02817V7.29976H101.832V4.20198C101.832 3.79303 101.714 3.47268 101.478 3.24095C101.25 3.00239 100.927 2.88312 100.511 2.88312C100.234 2.88312 99.9845 2.94105 99.7627 3.05692C99.5409 3.17279 99.3572 3.33978 99.2116 3.55788V7.29976H98.1718Z" fill="white"/>
<path d="M92.2724 7.29976V2.09589H93.3122V2.62752C93.7211 2.20494 94.2514 1.99365 94.903 1.99365C95.312 1.99365 95.669 2.07885 95.974 2.24925C96.2859 2.41964 96.5285 2.65819 96.7018 2.96491C96.882 3.27162 96.9721 3.62604 96.9721 4.02817V7.29976H95.9324V4.20198C95.9324 3.79303 95.8145 3.47268 95.5788 3.24095C95.3501 3.00239 95.0278 2.88312 94.6119 2.88312C94.3346 2.88312 94.085 2.94105 93.8632 3.05692C93.6414 3.17279 93.4577 3.33978 93.3122 3.55788V7.29976H92.2724Z" fill="white"/>
<path d="M89.8182 7.29976V0.143158H90.9099V7.29976H89.8182Z" fill="white"/>
<path d="M35.3684 10.4968L22.3942 32.5699C22.0875 32.9685 21.6301 33.6812 20.7206 33.6813H4.42105L16.9633 12.08C17.5281 11.1832 18.3086 10.4969 19.3545 10.4968H35.3684ZM19.8359 10.4968C18.5018 10.4968 17.5316 11.2045 16.8111 12.3505L7.43178 28.496L18.19 28.5023C19.3492 28.5023 19.9331 27.5902 20.3242 27.081L29.9336 10.4978L19.8359 10.4968Z" fill="#D81B5D"/>
<path d="M16.2105 8.55658C15.3249 8.63983 14.6637 9.15061 14.1619 9.93476L9.55744 17.742C8.51357 16.0012 0 1.80263 0 1.80263H10.7351C12.2204 1.80263 12.7048 2.61686 13.0495 3.19316L16.2105 8.55658Z" fill="#D81B5D"/>
<path d="M19.7515 10.4968C18.5433 10.4968 17.6647 11.1234 17.0122 12.1381L8.8421 26.4361H17.1428C18.1924 26.4361 18.7208 25.6288 19.075 25.178L28 10.4974L19.7515 10.4968Z" fill="#D81B5D"/>
</svg>
